<mxfile host="app.diagrams.net" modified="2023-11-20T12:31:50.827Z" agent="Mozilla/5.0 (X11; Linux x86_64) AppleWebKit/537.36 (KHTML, like Gecko) Chrome/119.0.0.0 Safari/537.36" etag="pwbRo9Cg4OATpxZWl104" version="22.1.3" type="github">
  <diagram name="Page-1" id="RFBaPc5K5OmR-_8Ed8LZ">
    <mxGraphModel dx="1434" dy="759" grid="1" gridSize="10" guides="1" tooltips="1" connect="1" arrows="1" fold="1" page="1" pageScale="1" pageWidth="827" pageHeight="1169" math="0" shadow="0">
      <root>
        <mxCell id="0" />
        <mxCell id="1" parent="0" />
        <mxCell id="aoS1Anyq2JgAf3qkxeZy-1" value="5" style="ellipse;whiteSpace=wrap;html=1;aspect=fixed;fillColor=#fff2cc;strokeColor=#d6b656;" vertex="1" parent="1">
          <mxGeometry width="40" height="40" as="geometry" />
        </mxCell>
        <mxCell id="aoS1Anyq2JgAf3qkxeZy-2" value="4" style="ellipse;whiteSpace=wrap;html=1;aspect=fixed;fillColor=#fff2cc;strokeColor=#d6b656;" vertex="1" parent="1">
          <mxGeometry x="80" width="40" height="40" as="geometry" />
        </mxCell>
        <mxCell id="aoS1Anyq2JgAf3qkxeZy-3" value="8" style="ellipse;whiteSpace=wrap;html=1;aspect=fixed;" vertex="1" parent="1">
          <mxGeometry x="160" width="40" height="40" as="geometry" />
        </mxCell>
        <mxCell id="aoS1Anyq2JgAf3qkxeZy-4" value="1" style="ellipse;whiteSpace=wrap;html=1;aspect=fixed;" vertex="1" parent="1">
          <mxGeometry x="240" width="40" height="40" as="geometry" />
        </mxCell>
        <mxCell id="aoS1Anyq2JgAf3qkxeZy-5" value="10" style="ellipse;whiteSpace=wrap;html=1;aspect=fixed;" vertex="1" parent="1">
          <mxGeometry x="320" width="40" height="40" as="geometry" />
        </mxCell>
        <mxCell id="aoS1Anyq2JgAf3qkxeZy-15" value="4" style="ellipse;whiteSpace=wrap;html=1;aspect=fixed;" vertex="1" parent="1">
          <mxGeometry y="60" width="40" height="40" as="geometry" />
        </mxCell>
        <mxCell id="aoS1Anyq2JgAf3qkxeZy-16" value="5" style="ellipse;whiteSpace=wrap;html=1;aspect=fixed;fillColor=#d5e8d4;strokeColor=#82b366;" vertex="1" parent="1">
          <mxGeometry x="80" y="60" width="40" height="40" as="geometry" />
        </mxCell>
        <mxCell id="aoS1Anyq2JgAf3qkxeZy-17" value="8" style="ellipse;whiteSpace=wrap;html=1;aspect=fixed;fillColor=#d5e8d4;strokeColor=#82b366;" vertex="1" parent="1">
          <mxGeometry x="160" y="60" width="40" height="40" as="geometry" />
        </mxCell>
        <mxCell id="aoS1Anyq2JgAf3qkxeZy-18" value="1" style="ellipse;whiteSpace=wrap;html=1;aspect=fixed;" vertex="1" parent="1">
          <mxGeometry x="240" y="60" width="40" height="40" as="geometry" />
        </mxCell>
        <mxCell id="aoS1Anyq2JgAf3qkxeZy-19" value="10" style="ellipse;whiteSpace=wrap;html=1;aspect=fixed;" vertex="1" parent="1">
          <mxGeometry x="320" y="60" width="40" height="40" as="geometry" />
        </mxCell>
        <mxCell id="aoS1Anyq2JgAf3qkxeZy-25" value="4" style="ellipse;whiteSpace=wrap;html=1;aspect=fixed;" vertex="1" parent="1">
          <mxGeometry y="120" width="40" height="40" as="geometry" />
        </mxCell>
        <mxCell id="aoS1Anyq2JgAf3qkxeZy-26" value="5" style="ellipse;whiteSpace=wrap;html=1;aspect=fixed;" vertex="1" parent="1">
          <mxGeometry x="80" y="120" width="40" height="40" as="geometry" />
        </mxCell>
        <mxCell id="aoS1Anyq2JgAf3qkxeZy-27" value="1" style="ellipse;whiteSpace=wrap;html=1;aspect=fixed;fillColor=#fff2cc;strokeColor=#d6b656;" vertex="1" parent="1">
          <mxGeometry x="160" y="120" width="40" height="40" as="geometry" />
        </mxCell>
        <mxCell id="aoS1Anyq2JgAf3qkxeZy-28" value="8" style="ellipse;whiteSpace=wrap;html=1;aspect=fixed;fillColor=#fff2cc;strokeColor=#d6b656;" vertex="1" parent="1">
          <mxGeometry x="240" y="120" width="40" height="40" as="geometry" />
        </mxCell>
        <mxCell id="aoS1Anyq2JgAf3qkxeZy-29" value="10" style="ellipse;whiteSpace=wrap;html=1;aspect=fixed;" vertex="1" parent="1">
          <mxGeometry x="320" y="120" width="40" height="40" as="geometry" />
        </mxCell>
        <mxCell id="aoS1Anyq2JgAf3qkxeZy-35" value="4" style="ellipse;whiteSpace=wrap;html=1;aspect=fixed;" vertex="1" parent="1">
          <mxGeometry y="180" width="40" height="40" as="geometry" />
        </mxCell>
        <mxCell id="aoS1Anyq2JgAf3qkxeZy-36" value="5" style="ellipse;whiteSpace=wrap;html=1;aspect=fixed;" vertex="1" parent="1">
          <mxGeometry x="80" y="180" width="40" height="40" as="geometry" />
        </mxCell>
        <mxCell id="aoS1Anyq2JgAf3qkxeZy-37" value="1" style="ellipse;whiteSpace=wrap;html=1;aspect=fixed;" vertex="1" parent="1">
          <mxGeometry x="160" y="180" width="40" height="40" as="geometry" />
        </mxCell>
        <mxCell id="aoS1Anyq2JgAf3qkxeZy-38" value="8" style="ellipse;whiteSpace=wrap;html=1;aspect=fixed;fillColor=#d5e8d4;strokeColor=#82b366;" vertex="1" parent="1">
          <mxGeometry x="240" y="180" width="40" height="40" as="geometry" />
        </mxCell>
        <mxCell id="aoS1Anyq2JgAf3qkxeZy-39" value="10" style="ellipse;whiteSpace=wrap;html=1;aspect=fixed;fillColor=#d5e8d4;strokeColor=#82b366;" vertex="1" parent="1">
          <mxGeometry x="320" y="180" width="40" height="40" as="geometry" />
        </mxCell>
        <mxCell id="aoS1Anyq2JgAf3qkxeZy-40" value="" style="endArrow=none;html=1;rounded=0;" edge="1" parent="1">
          <mxGeometry width="50" height="50" relative="1" as="geometry">
            <mxPoint x="300" y="230" as="sourcePoint" />
            <mxPoint x="300" y="170" as="targetPoint" />
          </mxGeometry>
        </mxCell>
        <mxCell id="aoS1Anyq2JgAf3qkxeZy-41" value="sorted" style="text;html=1;strokeColor=none;fillColor=none;align=center;verticalAlign=middle;whiteSpace=wrap;rounded=0;" vertex="1" parent="1">
          <mxGeometry x="300" y="170" width="40" height="10" as="geometry" />
        </mxCell>
        <mxCell id="aoS1Anyq2JgAf3qkxeZy-42" value="4" style="ellipse;whiteSpace=wrap;html=1;aspect=fixed;fillColor=#d5e8d4;strokeColor=#82b366;" vertex="1" parent="1">
          <mxGeometry y="240" width="40" height="40" as="geometry" />
        </mxCell>
        <mxCell id="aoS1Anyq2JgAf3qkxeZy-43" value="5" style="ellipse;whiteSpace=wrap;html=1;aspect=fixed;fillColor=#d5e8d4;strokeColor=#82b366;" vertex="1" parent="1">
          <mxGeometry x="80" y="240" width="40" height="40" as="geometry" />
        </mxCell>
        <mxCell id="aoS1Anyq2JgAf3qkxeZy-44" value="1" style="ellipse;whiteSpace=wrap;html=1;aspect=fixed;" vertex="1" parent="1">
          <mxGeometry x="160" y="240" width="40" height="40" as="geometry" />
        </mxCell>
        <mxCell id="aoS1Anyq2JgAf3qkxeZy-45" value="8" style="ellipse;whiteSpace=wrap;html=1;aspect=fixed;" vertex="1" parent="1">
          <mxGeometry x="240" y="240" width="40" height="40" as="geometry" />
        </mxCell>
        <mxCell id="aoS1Anyq2JgAf3qkxeZy-46" value="10" style="ellipse;whiteSpace=wrap;html=1;aspect=fixed;fillColor=#d5e8d4;strokeColor=#82b366;" vertex="1" parent="1">
          <mxGeometry x="320" y="240" width="40" height="40" as="geometry" />
        </mxCell>
        <mxCell id="aoS1Anyq2JgAf3qkxeZy-48" value="" style="endArrow=none;html=1;rounded=0;" edge="1" parent="1">
          <mxGeometry width="50" height="50" relative="1" as="geometry">
            <mxPoint x="300" y="290" as="sourcePoint" />
            <mxPoint x="300" y="230" as="targetPoint" />
          </mxGeometry>
        </mxCell>
        <mxCell id="aoS1Anyq2JgAf3qkxeZy-49" value="4" style="ellipse;whiteSpace=wrap;html=1;aspect=fixed;" vertex="1" parent="1">
          <mxGeometry y="300" width="40" height="40" as="geometry" />
        </mxCell>
        <mxCell id="aoS1Anyq2JgAf3qkxeZy-50" value="1" style="ellipse;whiteSpace=wrap;html=1;aspect=fixed;fillColor=#fff2cc;strokeColor=#d6b656;" vertex="1" parent="1">
          <mxGeometry x="80" y="300" width="40" height="40" as="geometry" />
        </mxCell>
        <mxCell id="aoS1Anyq2JgAf3qkxeZy-51" value="5" style="ellipse;whiteSpace=wrap;html=1;aspect=fixed;fillColor=#fff2cc;strokeColor=#d6b656;" vertex="1" parent="1">
          <mxGeometry x="160" y="300" width="40" height="40" as="geometry" />
        </mxCell>
        <mxCell id="aoS1Anyq2JgAf3qkxeZy-52" value="8" style="ellipse;whiteSpace=wrap;html=1;aspect=fixed;" vertex="1" parent="1">
          <mxGeometry x="240" y="300" width="40" height="40" as="geometry" />
        </mxCell>
        <mxCell id="aoS1Anyq2JgAf3qkxeZy-53" value="10" style="ellipse;whiteSpace=wrap;html=1;aspect=fixed;fillColor=#d5e8d4;strokeColor=#82b366;" vertex="1" parent="1">
          <mxGeometry x="320" y="300" width="40" height="40" as="geometry" />
        </mxCell>
        <mxCell id="aoS1Anyq2JgAf3qkxeZy-55" value="" style="endArrow=none;html=1;rounded=0;" edge="1" parent="1">
          <mxGeometry width="50" height="50" relative="1" as="geometry">
            <mxPoint x="300" y="350" as="sourcePoint" />
            <mxPoint x="300" y="290" as="targetPoint" />
          </mxGeometry>
        </mxCell>
        <mxCell id="aoS1Anyq2JgAf3qkxeZy-56" value="4" style="ellipse;whiteSpace=wrap;html=1;aspect=fixed;" vertex="1" parent="1">
          <mxGeometry y="360" width="40" height="40" as="geometry" />
        </mxCell>
        <mxCell id="aoS1Anyq2JgAf3qkxeZy-57" value="1" style="ellipse;whiteSpace=wrap;html=1;aspect=fixed;" vertex="1" parent="1">
          <mxGeometry x="80" y="360" width="40" height="40" as="geometry" />
        </mxCell>
        <mxCell id="aoS1Anyq2JgAf3qkxeZy-58" value="5" style="ellipse;whiteSpace=wrap;html=1;aspect=fixed;fillColor=#d5e8d4;strokeColor=#82b366;" vertex="1" parent="1">
          <mxGeometry x="160" y="360" width="40" height="40" as="geometry" />
        </mxCell>
        <mxCell id="aoS1Anyq2JgAf3qkxeZy-59" value="8" style="ellipse;whiteSpace=wrap;html=1;aspect=fixed;fillColor=#d5e8d4;strokeColor=#82b366;" vertex="1" parent="1">
          <mxGeometry x="240" y="360" width="40" height="40" as="geometry" />
        </mxCell>
        <mxCell id="aoS1Anyq2JgAf3qkxeZy-60" value="10" style="ellipse;whiteSpace=wrap;html=1;aspect=fixed;fillColor=#d5e8d4;strokeColor=#82b366;" vertex="1" parent="1">
          <mxGeometry x="320" y="360" width="40" height="40" as="geometry" />
        </mxCell>
        <mxCell id="aoS1Anyq2JgAf3qkxeZy-62" value="" style="endArrow=none;html=1;rounded=0;" edge="1" parent="1">
          <mxGeometry width="50" height="50" relative="1" as="geometry">
            <mxPoint x="300" y="410" as="sourcePoint" />
            <mxPoint x="300" y="350" as="targetPoint" />
          </mxGeometry>
        </mxCell>
        <mxCell id="aoS1Anyq2JgAf3qkxeZy-63" value="4" style="ellipse;whiteSpace=wrap;html=1;aspect=fixed;" vertex="1" parent="1">
          <mxGeometry y="420" width="40" height="40" as="geometry" />
        </mxCell>
        <mxCell id="aoS1Anyq2JgAf3qkxeZy-64" value="1" style="ellipse;whiteSpace=wrap;html=1;aspect=fixed;" vertex="1" parent="1">
          <mxGeometry x="80" y="420" width="40" height="40" as="geometry" />
        </mxCell>
        <mxCell id="aoS1Anyq2JgAf3qkxeZy-65" value="5" style="ellipse;whiteSpace=wrap;html=1;aspect=fixed;" vertex="1" parent="1">
          <mxGeometry x="160" y="420" width="40" height="40" as="geometry" />
        </mxCell>
        <mxCell id="aoS1Anyq2JgAf3qkxeZy-66" value="8" style="ellipse;whiteSpace=wrap;html=1;aspect=fixed;fillColor=#d5e8d4;strokeColor=#82b366;" vertex="1" parent="1">
          <mxGeometry x="240" y="420" width="40" height="40" as="geometry" />
        </mxCell>
        <mxCell id="aoS1Anyq2JgAf3qkxeZy-67" value="10" style="ellipse;whiteSpace=wrap;html=1;aspect=fixed;fillColor=#d5e8d4;strokeColor=#82b366;" vertex="1" parent="1">
          <mxGeometry x="320" y="420" width="40" height="40" as="geometry" />
        </mxCell>
        <mxCell id="aoS1Anyq2JgAf3qkxeZy-68" value="sorted" style="text;html=1;strokeColor=none;fillColor=none;align=center;verticalAlign=middle;whiteSpace=wrap;rounded=0;" vertex="1" parent="1">
          <mxGeometry x="220" y="410" width="40" height="10" as="geometry" />
        </mxCell>
        <mxCell id="aoS1Anyq2JgAf3qkxeZy-69" value="" style="endArrow=none;html=1;rounded=0;" edge="1" parent="1">
          <mxGeometry width="50" height="50" relative="1" as="geometry">
            <mxPoint x="220" y="470" as="sourcePoint" />
            <mxPoint x="220" y="410" as="targetPoint" />
          </mxGeometry>
        </mxCell>
        <mxCell id="aoS1Anyq2JgAf3qkxeZy-70" value="1" style="ellipse;whiteSpace=wrap;html=1;aspect=fixed;fillColor=#fff2cc;strokeColor=#d6b656;" vertex="1" parent="1">
          <mxGeometry y="480" width="40" height="40" as="geometry" />
        </mxCell>
        <mxCell id="aoS1Anyq2JgAf3qkxeZy-71" value="4" style="ellipse;whiteSpace=wrap;html=1;aspect=fixed;fillColor=#fff2cc;strokeColor=#d6b656;" vertex="1" parent="1">
          <mxGeometry x="80" y="480" width="40" height="40" as="geometry" />
        </mxCell>
        <mxCell id="aoS1Anyq2JgAf3qkxeZy-72" value="5" style="ellipse;whiteSpace=wrap;html=1;aspect=fixed;" vertex="1" parent="1">
          <mxGeometry x="160" y="480" width="40" height="40" as="geometry" />
        </mxCell>
        <mxCell id="aoS1Anyq2JgAf3qkxeZy-73" value="8" style="ellipse;whiteSpace=wrap;html=1;aspect=fixed;fillColor=#d5e8d4;strokeColor=#82b366;" vertex="1" parent="1">
          <mxGeometry x="240" y="480" width="40" height="40" as="geometry" />
        </mxCell>
        <mxCell id="aoS1Anyq2JgAf3qkxeZy-74" value="10" style="ellipse;whiteSpace=wrap;html=1;aspect=fixed;fillColor=#d5e8d4;strokeColor=#82b366;" vertex="1" parent="1">
          <mxGeometry x="320" y="480" width="40" height="40" as="geometry" />
        </mxCell>
        <mxCell id="aoS1Anyq2JgAf3qkxeZy-76" value="" style="endArrow=none;html=1;rounded=0;" edge="1" parent="1">
          <mxGeometry width="50" height="50" relative="1" as="geometry">
            <mxPoint x="220" y="530" as="sourcePoint" />
            <mxPoint x="220" y="470" as="targetPoint" />
          </mxGeometry>
        </mxCell>
        <mxCell id="aoS1Anyq2JgAf3qkxeZy-77" value="1" style="ellipse;whiteSpace=wrap;html=1;aspect=fixed;" vertex="1" parent="1">
          <mxGeometry y="540" width="40" height="40" as="geometry" />
        </mxCell>
        <mxCell id="aoS1Anyq2JgAf3qkxeZy-78" value="4" style="ellipse;whiteSpace=wrap;html=1;aspect=fixed;fillColor=#d5e8d4;strokeColor=#82b366;" vertex="1" parent="1">
          <mxGeometry x="80" y="540" width="40" height="40" as="geometry" />
        </mxCell>
        <mxCell id="aoS1Anyq2JgAf3qkxeZy-79" value="5" style="ellipse;whiteSpace=wrap;html=1;aspect=fixed;fillColor=#d5e8d4;strokeColor=#82b366;" vertex="1" parent="1">
          <mxGeometry x="160" y="540" width="40" height="40" as="geometry" />
        </mxCell>
        <mxCell id="aoS1Anyq2JgAf3qkxeZy-80" value="8" style="ellipse;whiteSpace=wrap;html=1;aspect=fixed;fillColor=#d5e8d4;strokeColor=#82b366;" vertex="1" parent="1">
          <mxGeometry x="240" y="540" width="40" height="40" as="geometry" />
        </mxCell>
        <mxCell id="aoS1Anyq2JgAf3qkxeZy-81" value="10" style="ellipse;whiteSpace=wrap;html=1;aspect=fixed;fillColor=#d5e8d4;strokeColor=#82b366;" vertex="1" parent="1">
          <mxGeometry x="320" y="540" width="40" height="40" as="geometry" />
        </mxCell>
        <mxCell id="aoS1Anyq2JgAf3qkxeZy-83" value="" style="endArrow=none;html=1;rounded=0;" edge="1" parent="1">
          <mxGeometry width="50" height="50" relative="1" as="geometry">
            <mxPoint x="220" y="590" as="sourcePoint" />
            <mxPoint x="220" y="530" as="targetPoint" />
          </mxGeometry>
        </mxCell>
        <mxCell id="aoS1Anyq2JgAf3qkxeZy-84" value="1" style="ellipse;whiteSpace=wrap;html=1;aspect=fixed;fillColor=#d5e8d4;strokeColor=#82b366;" vertex="1" parent="1">
          <mxGeometry y="600" width="40" height="40" as="geometry" />
        </mxCell>
        <mxCell id="aoS1Anyq2JgAf3qkxeZy-85" value="4" style="ellipse;whiteSpace=wrap;html=1;aspect=fixed;fillColor=#d5e8d4;strokeColor=#82b366;" vertex="1" parent="1">
          <mxGeometry x="80" y="600" width="40" height="40" as="geometry" />
        </mxCell>
        <mxCell id="aoS1Anyq2JgAf3qkxeZy-86" value="5" style="ellipse;whiteSpace=wrap;html=1;aspect=fixed;fillColor=#d5e8d4;strokeColor=#82b366;" vertex="1" parent="1">
          <mxGeometry x="160" y="600" width="40" height="40" as="geometry" />
        </mxCell>
        <mxCell id="aoS1Anyq2JgAf3qkxeZy-87" value="8" style="ellipse;whiteSpace=wrap;html=1;aspect=fixed;fillColor=#d5e8d4;strokeColor=#82b366;" vertex="1" parent="1">
          <mxGeometry x="240" y="600" width="40" height="40" as="geometry" />
        </mxCell>
        <mxCell id="aoS1Anyq2JgAf3qkxeZy-88" value="10" style="ellipse;whiteSpace=wrap;html=1;aspect=fixed;fillColor=#d5e8d4;strokeColor=#82b366;" vertex="1" parent="1">
          <mxGeometry x="320" y="600" width="40" height="40" as="geometry" />
        </mxCell>
        <mxCell id="aoS1Anyq2JgAf3qkxeZy-89" value="sorted" style="text;html=1;strokeColor=none;fillColor=none;align=center;verticalAlign=middle;whiteSpace=wrap;rounded=0;" vertex="1" parent="1">
          <mxGeometry x="140" y="590" width="40" height="10" as="geometry" />
        </mxCell>
        <mxCell id="aoS1Anyq2JgAf3qkxeZy-90" value="" style="endArrow=none;html=1;rounded=0;" edge="1" parent="1">
          <mxGeometry width="50" height="50" relative="1" as="geometry">
            <mxPoint x="140" y="650" as="sourcePoint" />
            <mxPoint x="140" y="590" as="targetPoint" />
          </mxGeometry>
        </mxCell>
        <mxCell id="aoS1Anyq2JgAf3qkxeZy-99" value="1" style="ellipse;whiteSpace=wrap;html=1;aspect=fixed;" vertex="1" parent="1">
          <mxGeometry y="660" width="40" height="40" as="geometry" />
        </mxCell>
        <mxCell id="aoS1Anyq2JgAf3qkxeZy-100" value="4" style="ellipse;whiteSpace=wrap;html=1;aspect=fixed;fillColor=#d5e8d4;strokeColor=#82b366;" vertex="1" parent="1">
          <mxGeometry x="80" y="660" width="40" height="40" as="geometry" />
        </mxCell>
        <mxCell id="aoS1Anyq2JgAf3qkxeZy-101" value="5" style="ellipse;whiteSpace=wrap;html=1;aspect=fixed;fillColor=#d5e8d4;strokeColor=#82b366;" vertex="1" parent="1">
          <mxGeometry x="160" y="660" width="40" height="40" as="geometry" />
        </mxCell>
        <mxCell id="aoS1Anyq2JgAf3qkxeZy-102" value="8" style="ellipse;whiteSpace=wrap;html=1;aspect=fixed;fillColor=#d5e8d4;strokeColor=#82b366;" vertex="1" parent="1">
          <mxGeometry x="240" y="660" width="40" height="40" as="geometry" />
        </mxCell>
        <mxCell id="aoS1Anyq2JgAf3qkxeZy-103" value="10" style="ellipse;whiteSpace=wrap;html=1;aspect=fixed;fillColor=#d5e8d4;strokeColor=#82b366;" vertex="1" parent="1">
          <mxGeometry x="320" y="660" width="40" height="40" as="geometry" />
        </mxCell>
        <mxCell id="aoS1Anyq2JgAf3qkxeZy-104" value="sorted" style="text;html=1;strokeColor=none;fillColor=none;align=center;verticalAlign=middle;whiteSpace=wrap;rounded=0;" vertex="1" parent="1">
          <mxGeometry x="60" y="650" width="40" height="10" as="geometry" />
        </mxCell>
        <mxCell id="aoS1Anyq2JgAf3qkxeZy-105" value="" style="endArrow=none;html=1;rounded=0;" edge="1" parent="1">
          <mxGeometry width="50" height="50" relative="1" as="geometry">
            <mxPoint x="60" y="710" as="sourcePoint" />
            <mxPoint x="60" y="650" as="targetPoint" />
          </mxGeometry>
        </mxCell>
        <mxCell id="aoS1Anyq2JgAf3qkxeZy-106" value="1" style="ellipse;whiteSpace=wrap;html=1;aspect=fixed;fillColor=#d5e8d4;strokeColor=#82b366;" vertex="1" parent="1">
          <mxGeometry y="720" width="40" height="40" as="geometry" />
        </mxCell>
        <mxCell id="aoS1Anyq2JgAf3qkxeZy-107" value="4" style="ellipse;whiteSpace=wrap;html=1;aspect=fixed;fillColor=#d5e8d4;strokeColor=#82b366;" vertex="1" parent="1">
          <mxGeometry x="80" y="720" width="40" height="40" as="geometry" />
        </mxCell>
        <mxCell id="aoS1Anyq2JgAf3qkxeZy-108" value="5" style="ellipse;whiteSpace=wrap;html=1;aspect=fixed;fillColor=#d5e8d4;strokeColor=#82b366;" vertex="1" parent="1">
          <mxGeometry x="160" y="720" width="40" height="40" as="geometry" />
        </mxCell>
        <mxCell id="aoS1Anyq2JgAf3qkxeZy-109" value="8" style="ellipse;whiteSpace=wrap;html=1;aspect=fixed;fillColor=#d5e8d4;strokeColor=#82b366;" vertex="1" parent="1">
          <mxGeometry x="240" y="720" width="40" height="40" as="geometry" />
        </mxCell>
        <mxCell id="aoS1Anyq2JgAf3qkxeZy-110" value="10" style="ellipse;whiteSpace=wrap;html=1;aspect=fixed;fillColor=#d5e8d4;strokeColor=#82b366;" vertex="1" parent="1">
          <mxGeometry x="320" y="720" width="40" height="40" as="geometry" />
        </mxCell>
      </root>
    </mxGraphModel>
  </diagram>
</mxfile>
